<svg width="18" height="24" viewBox="0 0 18 24" fill="none" xmlns="http://www.w3.org/2000/svg">
<path d="M9 24C6.49286 24 4.36607 23.1429 2.61964 21.4288C0.873214 19.7146 0 17.6271 0 15.1663C0 13.1892 0.594643 11.4173 1.78393 9.85032C2.97321 8.2834 4.53214 7.22651 6.46071 6.67966C6.03214 6.5745 5.61429 6.42201 5.20714 6.2222C4.8 6.02239 4.43571 5.76474 4.11429 5.44925C3.40714 4.75518 2.95179 3.92965 2.74821 2.97267C2.54464 2.01568 2.49643 1.04293 2.60357 0.0543946C3.61071 -0.0507683 4.60179 -0.003445 5.57679 0.196365C6.55179 0.396174 7.39286 0.843117 8.1 1.53719C8.59286 2.02094 8.95179 2.56779 9.17679 3.17773C9.40179 3.78768 9.54643 4.42917 9.61071 5.10222C9.88929 4.45021 10.2268 3.835 10.6232 3.25661C11.0196 2.67821 11.4643 2.14714 11.9571 1.66339C12.1929 1.43203 12.4929 1.31635 12.8571 1.31635C13.2214 1.31635 13.5214 1.43203 13.7571 1.66339C13.9929 1.89475 14.1107 2.1892 14.1107 2.54676C14.1107 2.90431 13.9929 3.19877 13.7571 3.43013C13.2857 3.89284 12.8679 4.40288 12.5036 4.96025C12.1393 5.51761 11.8714 6.11178 11.7 6.74276C13.5857 7.33167 15.1071 8.39908 16.2643 9.94497C17.4214 11.4909 18 13.2313 18 15.1663C18 17.6271 17.1268 19.7146 15.3804 21.4288C13.6339 23.1429 11.5071 24 9 24Z" fill="#B9B9B9"/>
</svg>
