<svg width="25" height="25" viewBox="0 0 25 25" fill="none" xmlns="http://www.w3.org/2000/svg">
<mask id="mask0_1210_1788" style="mask-type:alpha" maskUnits="userSpaceOnUse" x="0" y="0" width="25" height="25">
<rect x="0.5" y="0.5" width="24" height="24" fill="#D9D9D9"/>
</mask>
<g mask="url(#mask0_1210_1788)">
<path d="M16.675 13.5001H5.5C5.21667 13.5001 4.97917 13.4043 4.7875 13.2126C4.59583 13.0209 4.5 12.7834 4.5 12.5001C4.5 12.2168 4.59583 11.9793 4.7875 11.7876C4.97917 11.5959 5.21667 11.5001 5.5 11.5001H16.675L11.775 6.60011C11.575 6.40011 11.4792 6.16678 11.4875 5.90011C11.4958 5.63344 11.6 5.40011 11.8 5.20011C12 5.01678 12.2333 4.92094 12.5 4.91261C12.7667 4.90428 13 5.00011 13.2 5.20011L19.8 11.8001C19.9 11.9001 19.9708 12.0084 20.0125 12.1251C20.0542 12.2418 20.075 12.3668 20.075 12.5001C20.075 12.6334 20.0542 12.7584 20.0125 12.8751C19.9708 12.9918 19.9 13.1001 19.8 13.2001L13.2 19.8001C13.0167 19.9834 12.7875 20.0751 12.5125 20.0751C12.2375 20.0751 12 19.9834 11.8 19.8001C11.6 19.6001 11.5 19.3626 11.5 19.0876C11.5 18.8126 11.6 18.5751 11.8 18.3751L16.675 13.5001Z" fill="#313131"/>
</g>
</svg>
