<svg width="15" height="16" viewBox="0 0 15 16" fill="none" xmlns="http://www.w3.org/2000/svg">
<path d="M6.08366 10.8327H8.91699C9.11769 10.8327 9.28592 10.7648 9.42168 10.629C9.55744 10.4933 9.62533 10.325 9.62533 10.1243V8.70768H8.20866V9.41602H6.79199V6.58268H8.20866V7.29102H9.62533V5.87435C9.62533 5.67365 9.55744 5.50543 9.42168 5.36966C9.28592 5.2339 9.11769 5.16602 8.91699 5.16602H6.08366C5.88296 5.16602 5.71474 5.2339 5.57897 5.36966C5.44321 5.50543 5.37533 5.67365 5.37533 5.87435V10.1243C5.37533 10.325 5.44321 10.4933 5.57897 10.629C5.71474 10.7648 5.88296 10.8327 6.08366 10.8327ZM7.50033 15.0827C6.52046 15.0827 5.59963 14.8967 4.73783 14.5249C3.87602 14.153 3.12637 13.6483 2.48887 13.0108C1.85137 12.3733 1.34668 11.6237 0.974805 10.7619C0.60293 9.90004 0.416992 8.97921 0.416992 7.99935C0.416992 7.01949 0.60293 6.09865 0.974805 5.23685C1.34668 4.37504 1.85137 3.62539 2.48887 2.98789C3.12637 2.35039 3.87602 1.8457 4.73783 1.47383C5.59963 1.10195 6.52046 0.916016 7.50033 0.916016C8.48019 0.916016 9.40102 1.10195 10.2628 1.47383C11.1246 1.8457 11.8743 2.35039 12.5118 2.98789C13.1493 3.62539 13.654 4.37504 14.0258 5.23685C14.3977 6.09865 14.5837 7.01949 14.5837 7.99935C14.5837 8.97921 14.3977 9.90004 14.0258 10.7619C13.654 11.6237 13.1493 12.3733 12.5118 13.0108C11.8743 13.6483 11.1246 14.153 10.2628 14.5249C9.40102 14.8967 8.48019 15.0827 7.50033 15.0827ZM7.50033 13.666C9.08227 13.666 10.4222 13.1171 11.5201 12.0191C12.618 10.9212 13.167 9.58129 13.167 7.99935C13.167 6.4174 12.618 5.07747 11.5201 3.97956C10.4222 2.88164 9.08227 2.33268 7.50033 2.33268C5.91838 2.33268 4.57845 2.88164 3.48053 3.97956C2.38262 5.07747 1.83366 6.4174 1.83366 7.99935C1.83366 9.58129 2.38262 10.9212 3.48053 12.0191C4.57845 13.1171 5.91838 13.666 7.50033 13.666Z" fill="white"/>
</svg>
