<svg width="28" height="20" viewBox="0 0 28 20" fill="none" xmlns="http://www.w3.org/2000/svg">
<path d="M3.55433 20C2.36254 20 1.43949 19.5774 0.785178 18.7321C0.130863 17.8869 -0.114505 16.8571 0.0490736 15.6429L1.52128 4.92857C1.7316 3.5 2.3567 2.32143 3.39659 1.39286C4.43649 0.464286 5.65749 0 7.05959 0H20.9404C22.3425 0 23.5635 0.464286 24.6034 1.39286C25.6433 2.32143 26.2684 3.5 26.4787 4.92857L27.9509 15.6429C28.1145 16.8571 27.8691 17.8869 27.2148 18.7321C26.5605 19.5774 25.6375 20 24.4457 20C23.9549 20 23.4992 19.9107 23.0786 19.7321C22.658 19.5536 22.2724 19.2857 21.9219 18.9286L18.7672 15.7143H9.23285L6.07812 18.9286C5.72759 19.2857 5.34201 19.5536 4.92138 19.7321C4.50075 19.9107 4.04507 20 3.55433 20ZM21.0105 11.4286C21.4078 11.4286 21.7408 11.2917 22.0095 11.0179C22.2783 10.744 22.4126 10.4048 22.4126 10C22.4126 9.59524 22.2783 9.25595 22.0095 8.98214C21.7408 8.70833 21.4078 8.57143 21.0105 8.57143C20.6133 8.57143 20.2803 8.70833 20.0115 8.98214C19.7428 9.25595 19.6084 9.59524 19.6084 10C19.6084 10.4048 19.7428 10.744 20.0115 11.0179C20.2803 11.2917 20.6133 11.4286 21.0105 11.4286ZM18.2063 7.14286C18.6036 7.14286 18.9366 7.00595 19.2053 6.73214C19.474 6.45833 19.6084 6.11905 19.6084 5.71429C19.6084 5.30952 19.474 4.97024 19.2053 4.69643C18.9366 4.42262 18.6036 4.28571 18.2063 4.28571C17.809 4.28571 17.476 4.42262 17.2073 4.69643C16.9386 4.97024 16.8042 5.30952 16.8042 5.71429C16.8042 6.11905 16.9386 6.45833 17.2073 6.73214C17.476 7.00595 17.809 7.14286 18.2063 7.14286ZM8.04106 11.4286H10.1442V8.92857H12.5979V6.78571H10.1442V4.28571H8.04106V6.78571H5.58738V8.92857H8.04106V11.4286Z" fill="#B9B9B9"/>
</svg>
