<svg width="24" height="25" viewBox="0 0 24 25" fill="none" xmlns="http://www.w3.org/2000/svg">
<path d="M13.3333 13.8333H24V21.8333C24 22.5667 23.7389 23.1944 23.2167 23.7167C22.6944 24.2389 22.0667 24.5 21.3333 24.5H13.3333V13.8333ZM13.3333 11.1667V0.5H21.3333C22.0667 0.5 22.6944 0.761111 23.2167 1.28333C23.7389 1.80556 24 2.43333 24 3.16667V11.1667H13.3333ZM10.6667 11.1667H0V3.16667C0 2.43333 0.261111 1.80556 0.783333 1.28333C1.30556 0.761111 1.93333 0.5 2.66667 0.5H10.6667V11.1667ZM10.6667 13.8333V24.5H2.66667C1.93333 24.5 1.30556 24.2389 0.783333 23.7167C0.261111 23.1944 0 22.5667 0 21.8333V13.8333H10.6667Z" fill="#313131"/>
</svg>
