<svg width="109" height="52" viewBox="0 0 109 52" fill="none" xmlns="http://www.w3.org/2000/svg">
<path d="M9.71009 40.9598C9.76027 41.5493 9.81045 42.0652 9.86063 42.5074C9.96099 42.9495 10.1617 43.318 10.4628 43.6128C10.8141 43.8584 11.3159 44.0549 11.9682 44.2023C12.6206 44.3006 13.4988 44.3497 14.6028 44.3497C16.8609 44.3497 18.5671 44.104 19.7213 43.6128C20.9256 43.0723 21.5278 42.188 21.5278 40.9598V0.0598741H28.9797V40.9598C28.9797 42.188 29.5819 43.0723 30.7862 43.6128C31.9906 44.104 33.7218 44.3497 35.98 44.3497C37.1342 44.3497 38.0124 44.3006 38.6145 44.2023C39.2669 44.0549 39.7436 43.8584 40.0447 43.6128C40.3458 43.318 40.5214 42.9495 40.5716 42.5074C40.672 42.0652 40.7472 41.5493 40.7974 40.9598L43.0556 0.0598741H50.5075L48.2493 41.402C48.149 43.6128 47.8479 45.406 47.3461 46.7816C46.8443 48.1081 46.0915 49.1398 45.0879 49.8767C44.1345 50.5645 42.905 51.0312 41.3996 51.2769C39.8942 51.5225 38.0876 51.6454 35.98 51.6454C33.6215 51.6454 31.539 51.498 29.7324 51.2032C27.9761 50.9084 26.4957 50.2943 25.2914 49.3609C24.087 50.2943 22.5816 50.9084 20.7751 51.2032C18.9685 51.498 16.9111 51.6454 14.6028 51.6454C12.4951 51.6454 10.6635 51.5225 9.10791 51.2769C7.60247 51.0312 6.34794 50.5645 5.34431 49.8767C4.39087 49.1398 3.66324 48.1081 3.16142 46.7816C2.65961 45.406 2.35852 43.6128 2.25816 41.402L0 0.0598741H7.45193L9.71009 40.9598Z" fill="white"/>
<path d="M53.6233 22.8588V5.44872C53.6233 4.63195 53.777 3.89041 54.0843 3.22409C54.4136 2.55778 54.8527 1.98819 55.4016 1.51532C55.9724 1.04246 56.642 0.67706 57.4104 0.419132C58.2008 0.139711 59.068 0 60.012 0C60.9341 0 61.7793 0.139711 62.5477 0.419132C63.3381 0.67706 64.0077 1.0532 64.5565 1.54757C65.1274 2.02043 65.5664 2.59002 65.8738 3.25633C66.2031 3.92265 66.3678 4.65344 66.3678 5.44872V22.8588H63.1076V20.0861C63.1076 19.2263 62.8331 18.603 62.2843 18.2161C61.7574 17.8292 60.9999 17.6358 60.012 17.6358C59.0241 17.6358 58.2557 17.8292 57.7068 18.2161C57.1579 18.603 56.8835 19.2263 56.8835 20.0861V22.8588H53.6233ZM63.1076 5.64216C63.1076 4.7824 62.8331 4.15908 62.2843 3.77219C61.7574 3.3853 60.9999 3.19185 60.012 3.19185C59.0241 3.19185 58.2557 3.3853 57.7068 3.77219C57.1579 4.15908 56.8835 4.7824 56.8835 5.64216V15.0565C57.8275 14.6481 58.8704 14.4439 60.012 14.4439C61.1317 14.4439 62.1635 14.6481 63.1076 15.0565V5.64216Z" fill="white"/>
<path d="M71.9419 22.8588H68.6817V0.290168H74.5765C75.4766 0.290168 76.3218 0.419132 77.1122 0.67706C77.9026 0.913493 78.5941 1.2574 79.1869 1.70877C79.7797 2.13865 80.2407 2.66525 80.57 3.28857C80.9213 3.9119 81.0969 4.61045 81.0969 5.38423V12.5417C81.0969 13.251 80.9432 13.9066 80.6359 14.5084C80.3285 15.1102 79.9223 15.6261 79.4174 16.056C79.9223 16.4859 80.3285 17.0017 80.6359 17.6035C80.9432 18.1839 81.0969 18.8287 81.0969 19.538V22.8588H77.8367V20.602C77.8367 19.7207 77.5623 19.0114 77.0134 18.474C76.4865 17.9152 75.7949 17.6358 74.9387 17.6358H71.9419V22.8588ZM71.9419 14.4439H74.9387C75.7949 14.4439 76.4865 14.1753 77.0134 13.6379C77.5623 13.0791 77.8367 12.359 77.8367 11.4778V6.44819C77.8367 5.56693 77.5623 4.85763 77.0134 4.32028C76.4865 3.76144 75.7949 3.48202 74.9387 3.48202H71.9419V14.4439Z" fill="white"/>
<path d="M86.6711 22.8588H83.4109V0.290168H89.3056C90.2057 0.290168 91.051 0.419132 91.8413 0.67706C92.6317 0.913493 93.3232 1.2574 93.916 1.70877C94.5088 2.13865 94.9698 2.66525 95.2991 3.28857C95.6504 3.9119 95.826 4.61045 95.826 5.38423V12.5417C95.826 13.3155 95.6504 14.0141 95.2991 14.6374C94.9698 15.2607 94.5088 15.7981 93.916 16.2494C93.3232 16.6793 92.6317 17.0232 91.8413 17.2811C91.051 17.5176 90.2057 17.6358 89.3056 17.6358H86.6711V22.8588ZM86.6711 14.4439H89.6678C90.5241 14.4439 91.2156 14.1753 91.7425 13.6379C92.2914 13.0791 92.5658 12.359 92.5658 11.4778V6.44819C92.5658 5.56693 92.2914 4.85763 91.7425 4.32028C91.2156 3.76144 90.5241 3.48202 89.6678 3.48202H86.6711V14.4439Z" fill="white"/>
<path d="M53.2259 34.2353C53.2259 33.4185 53.3796 32.6769 53.6869 32.0106C54.0162 31.3443 54.4553 30.7747 55.0042 30.3019C55.575 29.829 56.2446 29.4636 57.013 29.2057C57.8034 28.9262 58.6706 28.7865 59.6146 28.7865C60.5367 28.7865 61.3819 28.9262 62.1503 29.2057C62.9407 29.4636 63.6103 29.8397 64.1591 30.3341C64.73 30.807 65.169 31.3766 65.4764 32.0429C65.8057 32.7092 65.9704 33.44 65.9704 34.2353V46.5513C65.9704 47.3466 65.8057 48.0774 65.4764 48.7437C65.169 49.41 64.73 49.9903 64.1591 50.4847C63.6103 50.9575 62.9407 51.3337 62.1503 51.6131C61.3819 51.871 60.5367 52 59.6146 52C58.6706 52 57.8034 51.871 57.013 51.6131C56.2446 51.3337 55.575 50.9575 55.0042 50.4847C54.4553 50.0118 54.0162 49.4422 53.6869 48.7759C53.3796 48.0881 53.2259 47.3466 53.2259 46.5513V34.2353ZM56.4861 46.3578C56.4861 47.2176 56.7605 47.8409 57.3094 48.2278C57.8583 48.6147 58.6267 48.8082 59.6146 48.8082C60.6025 48.8082 61.36 48.6147 61.8869 48.2278C62.4357 47.8409 62.7102 47.2176 62.7102 46.3578V34.4287C62.7102 33.5689 62.4357 32.9456 61.8869 32.5587C61.36 32.1718 60.6025 31.9784 59.6146 31.9784C58.6267 31.9784 57.8583 32.1718 57.3094 32.5587C56.7605 32.9456 56.4861 33.5689 56.4861 34.4287V46.3578ZM58.3303 38.749L61.6234 40.361L58.3303 41.9731V38.749Z" fill="white"/>
<path d="M71.5445 51.6454H68.2843V29.0767H74.1791C75.0792 29.0767 75.9244 29.2057 76.7148 29.4636C77.5052 29.7 78.1967 30.0439 78.7895 30.4953C79.3823 30.9252 79.8433 31.4518 80.1726 32.0751C80.5239 32.6984 80.6995 33.397 80.6995 34.1708V41.3283C80.6995 42.0376 80.5458 42.6931 80.2385 43.295C79.9311 43.8968 79.5249 44.4126 79.02 44.8425C79.5249 45.2724 79.9311 45.7883 80.2385 46.3901C80.5458 46.9704 80.6995 47.6152 80.6995 48.3245V51.6454H77.4393V49.3885C77.4393 48.5072 77.1649 47.7979 76.616 47.2606C76.0891 46.7017 75.3975 46.4223 74.5413 46.4223H71.5445V51.6454ZM71.5445 43.2305H74.5413C75.3975 43.2305 76.0891 42.9618 76.616 42.4244C77.1649 41.8656 77.4393 41.1456 77.4393 40.2643V35.2347C77.4393 34.3535 77.1649 33.6442 76.616 33.1068C76.0891 32.548 75.3975 32.2686 74.5413 32.2686H71.5445V43.2305Z" fill="white"/>
<path d="M86.2737 48.4535H94.77V51.6454H83.0135V29.0767H86.2737V48.4535Z" fill="white"/>
<path d="M96.5848 29.0767H102.48C103.38 29.0767 104.225 29.2057 105.015 29.4636C105.806 29.7 106.497 30.0439 107.09 30.4953C107.683 30.9252 108.144 31.4518 108.473 32.0751C108.824 32.6984 109 33.397 109 34.1708V46.5513C109 47.3251 108.824 48.0236 108.473 48.6469C108.144 49.2703 107.683 49.8076 107.09 50.259C106.497 50.6889 105.806 51.0328 105.015 51.2907C104.225 51.5271 103.38 51.6454 102.48 51.6454H96.5848V29.0767ZM102.842 48.4535C103.698 48.4535 104.39 48.1848 104.917 47.6475C105.465 47.0886 105.74 46.3686 105.74 45.4873V35.2347C105.74 34.3535 105.465 33.6442 104.917 33.1068C104.39 32.548 103.698 32.2686 102.842 32.2686H99.8451V48.4535H102.842Z" fill="white"/>
<path d="M97.8771 19.53V2.74065C97.8771 1.69691 99.1818 1.19165 99.9111 1.95298L108.266 10.6747C108.702 11.1304 108.688 11.8436 108.234 12.2822L99.8791 20.3498C99.1359 21.0675 97.8771 20.5521 97.8771 19.53Z" fill="#44F2D2"/>
</svg>
